<svg height="512pt" viewBox="0 0 512 512" width="512pt" xmlns="http://www.w3.org/2000/svg"><path d="m91 512h210v-62h45c24.8125 0 45-20.1875 45-45v-39.269531l-41.460938-20.730469 41.460938-20.730469v-30l70.320312-35.160156-70.421874-70.421875c-.9375-29.140625-8.332032-57.523438-21.632813-83.226562 30.9375-18.289063 51.734375-51.992188 51.734375-90.460938v-15h-217.230469c-108.296875 0-201.75 84.230469-203.7343748 191.304688-.9335942 50.25 17.1914058 98.230468 51.0351558 135.105468 25.570313 27.859375 39.75 60.347656 39.925782 91.484375zm319.675781-261.109375-49.675781 24.839844v30l-78.542969 39.269531 78.542969 39.269531v20.730469c0 8.269531-6.730469 15-15 15h-75v62h-150l-.003906-64.289062c-.109375-19.28125-4.402344-38.820313-12.492188-57.710938h36.765625l30.546875-61.089844c20.105469-4.496094 35.183594-22.46875 35.183594-43.910156h-30c0 8.269531-6.730469 15-15 15-8.273438 0-15-6.730469-15-15v-60c0-8.269531 6.726562-15 15-15 8.269531 0 15 6.730469 15 15v15h30v-15c0-3.972656-.523438-7.828125-1.496094-11.5l81.640625-63.5h24.855469c8.75 0 17.25-1.074219 25.382812-3.101562 12.863282 23.910156 19.617188 50.679687 19.617188 78.101562v6.214844zm-380.648437-59.03125c1.65625-89.25 79.597656-161.871094 173.742187-161.871094h185.722657c-6.96875 34.191407-37.273438 60.011719-73.492188 60.011719h-35.148438l-88.3125 68.6875c-7.449218-5.457031-16.621093-8.6875-26.539062-8.6875-24.8125 0-45 20.1875-45 45v60c0 17.019531 9.5 31.863281 23.472656 39.511719l-17.746094 35.488281h-34.671874c-5.554688-8.230469-11.855469-16.21875-18.882813-23.875-28.609375-31.175781-43.933594-71.753906-43.144531-114.265625zm0 0"/><path d="m489.300781 271.570312 13.414063 26.832032-59.996094 29.996094-13.417969-26.832032zm0 0"/><path d="m451 360h61v30h-61zm0 0"/><path d="m489.296875 478.433594-60-30 13.417969-26.832032 59.996094 30zm0 0"/></svg>