<?xml version="1.0" encoding="utf-8"?>
<!-- Generator: Adobe Illustrator 19.0.0, SVG Export Plug-In . SVG Version: 6.00 Build 0)  -->
<svg version="1.1" id="Capa_1" xmlns="http://www.w3.org/2000/svg" xmlns:xlink="http://www.w3.org/1999/xlink" x="0px" y="0px"
	 viewBox="-49 140.8 512.2 512.2" style="enable-background:new -49 140.8 512.2 512.2;" xml:space="preserve">
<g transform="translate(-1 -1)">
	<g>
		<g>
			<path d="M422,389.4c13.3-72.4-8.4-172-87.7-219.4c-50.1-28.1-109.2-35.5-164.7-20.7C92.7,169.9,36.2,225,18.4,296.8
				c-4,14.6-5.6,29.7-5,44.8c0.9,9.4,2.6,18.6,5.2,27.7c3.5,11.5,5.2,23.5,5.1,35.5C23.4,419,13.5,433.9,4.8,447
				c-9.5,14.3-17.7,26.6-12.9,38c4.5,7.7,12.4,12.8,21.3,13.7c0.5,0.1,1,0.1,1.5,0.2c2.4-0.3,4.8,0.5,6.5,2.1s2.6,4,2.5,6.4
				c0,17.7,0.4,26.9,7.8,31.1c-0.6,1.3-1.1,2.8-1.3,4.2c-0.7,5,1.1,10,4.8,13.5c3.7,3.6,8.4,6,13.5,6.9c0.4,0.1,0.7,0.1,1,0.2
				c0.2,1.3,0.3,2.6,0.3,3.8c-0.1,3.2-0.3,6.3-0.7,9.5c-1.4,13.6-3.4,32.3,24,41.3c5.5,1.5,11.2,2.2,16.9,2
				c25.9-1.1,51.4-6,75.9-14.5c7.1,12.3,11.3,26,12.5,40.2c0,2.3,0.9,4.4,2.5,6c1.6,1.6,3.8,2.5,6,2.5h213.3c3.6,0,6.9-2.4,8-5.9
				c1.1-3.5-0.1-7.4-3-9.6c-8.8-6.7-38.1-77.3-39-102.7c2.6-5.9,6-12.4,10.1-20.1C398.5,476.5,413.9,433.8,422,389.4z M32.9,355.5
				c-1.2-5-2-10-2.4-15.1c-0.6-13.3,0.9-26.6,4.5-39.4c16.5-66.7,67.2-115.9,139-135.2c51-13.7,105.4-6.9,151.5,18.9
				c72.3,43.3,92,134.9,79.7,201.7c-7.7,42.7-22.6,83.7-44,121.3c-4.7,8.8-8.7,16.3-11.7,23.3c-0.5,1.3-0.7,2.6-0.5,3.9
				c0.2,20.4,18.6,74.3,34.4,102H194.6c-2.1-13.1-6.4-25.7-12.5-37.4c24.7-9.7,46.5-22.1,57-35.8c2.8-3.7,2.1-9.1-1.6-11.9
				c-3.7-2.9-9.1-2.2-12,1.6c-24.1,31.6-124.6,55.6-147.1,48.3c-14.2-4.6-13.6-10.1-12.3-23.3c0.5-3.7,0.7-7.5,0.8-11.3
				c0-14.4-5.8-18.7-14.5-20.7c-1.6-0.2-3.2-0.8-4.6-1.8c1.7-1.6,3.6-2.9,5.6-4c3.6-1.8,5.4-5.7,4.6-9.6c-0.9-3.9-4.3-6.6-8.3-6.6
				c-3.1,0-6.5,0-8.3-0.2c-0.5-5.6-0.7-11.2-0.6-16.8c0.2-6.7-2.4-13.2-7.1-18.1s-11.2-7.5-17.9-7.5c-6.2-1.3-8-3-8.2-3.4
				c-1.2-3,7-15.3,11.4-22c9.5-14.3,21.3-32,21.8-51.2c0.2-10.7-0.9-21.3-3.5-31.7"/>
			<path d="M365.9,408.9c1.2-13.2-7.8-25.1-20.8-27.5l-16.3-22.7c1-1.8,1.8-3.8,2.3-5.9l15.8-6.3c7.3,8.3,19.1,11,29.3,6.6
				c10.2-4.4,16.3-14.8,15.3-25.9c-1-11-9.1-20.1-19.9-22.5l-12.8-25.6c9-9.2,9.8-23.6,1.8-33.7c-8-10.1-22.2-12.7-33.2-6
				l-14.3-11.9c1.1-2.8,1.6-5.8,1.7-8.9c0-10.5-6.3-19.9-16-23.8c-9.7-3.9-20.8-1.5-28,6.1l-25.3-6.3c-3-11-13-18.6-24.4-18.7
				s-21.4,7.4-24.6,18.4l-33.8,6.8c-8.8-9.5-23.4-10.9-33.8-3.2c-10.4,7.7-13.4,22-6.9,33.2l-16.6,22.1c-11.9,2.1-20.6,12.3-21,24.4
				s7.8,22.7,19.5,25.6l13.7,33.8c-7.5,7.4-9.7,18.6-5.6,28.3c4.1,9.7,13.8,15.8,24.3,15.5s19.8-7.1,23.3-17.1h45.8
				c3.8,11.8,15.8,18.9,27.9,16.7l28.3,43.1c-7.3,8.1-8.6,19.8-3.4,29.4c5.2,9.5,15.9,14.7,26.6,12.9s19.1-10.1,21-20.8l21.1-16.9
				c4,2.5,8.7,3.9,13.4,3.9C353.6,432.1,364.7,422.1,365.9,408.9z M366,321.2c4.3,0,7.9,3.1,8.5,7.4c0.6,4.2-2,8.2-6.2,9.4
				c-4.1,1.2-8.4-0.9-10.1-4.8c0-0.1,0-0.2,0-0.2l-0.1-0.1c-0.4-1-0.6-2-0.6-3.1C357.5,325,361.3,321.2,366,321.2z M332,259.7
				c0.8-4,4.3-6.8,8.4-6.8c4.7,0,8.5,3.8,8.5,8.5c0,4.7-3.8,8.5-8.5,8.5c-1.1,0-2.1-0.2-3.1-0.6l-0.1,0c-0.1,0-0.2,0-0.2,0
				C333.3,267.7,331.2,263.7,332,259.7z M323.6,280.6L323.6,280.6L307.8,320l-27.6-22.1c3.8-3.2,6.5-7.4,7.9-12.1l33.8-6.8
				C322.4,279.6,323,280.1,323.6,280.6z M314.5,349.1c-1.1,4.1-5.2,6.7-9.4,6.1c-4.2-0.6-7.4-4.2-7.4-8.5c0-4.7,3.8-8.5,8.5-8.5
				c1.1,0,2.1,0.2,3.1,0.6l0.1,0c0.1,0,0.2,0,0.2,0C313.6,340.7,315.6,345,314.5,349.1z M289.2,210.3c4.7,0,8.5,3.8,8.5,8.5
				s-3.8,8.5-8.5,8.5s-8.5-3.8-8.5-8.5C280.7,214.1,284.5,210.3,289.2,210.3z M244.3,212.1l19.5,4.9c0,0.6-0.2,1.2-0.2,1.8
				c0,14.1,11.5,25.6,25.6,25.6c4.6,0,9.1-1.3,13-3.7l14.3,11.9c-1.1,2.8-1.6,5.8-1.7,8.9c0,0.5,0.1,1,0.2,1.5l-27.8,5.6
				c-3.5-8.1-10.9-13.9-19.6-15.2l-31.2-31.2C239.8,219.5,242.5,216.1,244.3,212.1z M272.1,278.5c0,4.7-3.8,8.5-8.5,8.5
				c-4.7,0-8.5-3.8-8.5-8.5c0-4.7,3.8-8.5,8.5-8.5S272.1,273.8,272.1,278.5z M220.9,193.2c4.7,0,8.5,3.8,8.5,8.5s-3.8,8.5-8.5,8.5
				s-8.5-3.8-8.5-8.5C212.4,197,216.2,193.2,220.9,193.2z M222.6,232.6l25.6,25.6c-4,3-7,7.1-8.7,11.8h-20.2
				c-2-5.6-6-10.4-11.1-13.5L222.6,232.6z M169.6,217.3l27.8-5.6c2.2,5,5.9,9.2,10.7,12l-15.5,25.8l-26.8-17.2c2.6-4.1,4-8.8,4-13.6
				C169.7,218.3,169.6,217.8,169.6,217.3z M203.9,278.5c0,4.7-3.8,8.5-8.5,8.5c-4.7,0-8.5-3.8-8.5-8.5c0-4.7,3.8-8.5,8.5-8.5
				S203.9,273.8,203.9,278.5z M144.1,210.3c4.7,0,8.5,3.8,8.5,8.5s-3.8,8.5-8.5,8.5s-8.5-3.8-8.5-8.5
				C135.6,214.1,139.4,210.3,144.1,210.3z M134.8,242.6c5.2,2.1,11,2.4,16.3,0.7l26.3,16.9c-2.8,2.7-4.9,6.1-6.2,9.8H134
				c-1.9-5.3-5.4-9.8-10.1-12.9L134.8,242.6z M110,287.1c-4.7,0-8.5-3.8-8.5-8.5c0-4.7,3.8-8.5,8.5-8.5c4.7,0,8.5,3.8,8.5,8.5
				C118.5,283.2,114.7,287.1,110,287.1z M135.6,363.9c-4.7,0-8.5-3.8-8.5-8.5c0-4.7,3.8-8.5,8.5-8.5s8.5,3.8,8.5,8.5
				C144.1,360,140.3,363.9,135.6,363.9z M140.5,330.2c-1.6-0.3-3.2-0.5-4.9-0.5c-0.8,0-1.6,0.2-2.5,0.3l-11.6-28.7
				c5.8-3,10.3-8,12.5-14.2h37.3c1.5,4.3,4.2,8.1,7.7,11L140.5,330.2z M205.4,346.8h-45.8c-0.9-2.6-2.2-4.9-3.9-7.1l41.9-34.9
				l14.3,32C209,339.6,206.8,343,205.4,346.8z M219.4,287.1h20.2c2,5.6,6,10.4,11.1,13.5L233,330.1c-1.2-0.2-2.3-0.3-3.5-0.4
				c-0.7,0-1.3,0.1-1.9,0.2l-14.6-32.9C215.8,294.3,218,290.9,219.4,287.1z M229.5,363.9c-4.7,0-8.5-3.8-8.5-8.5
				c0-4.7,3.8-8.5,8.5-8.5c4.7,0,8.5,3.8,8.5,8.5C238,360,234.2,363.9,229.5,363.9z M265.9,308.4l23.8,19.1
				c-3.7,3.2-6.5,7.4-7.9,12.1l-28.8,5.8c-1.2-2.7-2.8-5.2-4.9-7.4L265.9,308.4z M280.7,449.2c-4.7,0-8.5-3.8-8.5-8.5
				s3.8-8.5,8.5-8.5s8.5,3.8,8.5,8.5C289.2,445.4,285.4,449.2,280.7,449.2z M314.8,406.5c0,2.9,0.5,5.7,1.5,8.4l-14.4,11.5
				c-5.4-8.4-15.3-12.7-25.1-10.9l-28.3-43.1c2.5-2.8,4.4-6.2,5.5-9.8l28.8-5.8c5.5,13,20.4,19.1,33.4,13.6l10.5,14.6
				C319.3,389.7,314.8,397.8,314.8,406.5z M323.1,327.7l16.3-40.7c0.3,0,0.7,0.1,1,0.1c1,0,2.1-0.1,3.1-0.3l10.3,20.6
				c-8.2,4.4-13.4,13-13.4,22.4c0,0.3,0.1,0.7,0.1,1l-11.5,4.6C327.6,332.4,325.6,329.8,323.1,327.7z M340.4,415.1
				c-4.7,0-8.5-3.8-8.5-8.5c0-4.7,3.8-8.5,8.5-8.5c4.7,0,8.5,3.8,8.5,8.5S345.1,415.1,340.4,415.1z"/>
		</g>
	</g>
</g>
</svg>
